<?xml version="1.0" encoding="UTF-8"?>
<!DOCTYPE svg PUBLIC "-//W3C//DTD SVG 1.1//EN" "http://www.w3.org/Graphics/SVG/1.1/DTD/svg11.dtd">
<!-- Creator: CorelDRAW -->
<svg xmlns="http://www.w3.org/2000/svg" xml:space="preserve" width="50px" height="50px" version="1.1" style="shape-rendering:geometricPrecision; text-rendering:geometricPrecision; image-rendering:optimizeQuality; fill-rule:evenodd; clip-rule:evenodd"
viewBox="0 0 850 850"
 xmlns:xlink="http://www.w3.org/1999/xlink">
 <defs>
  <style type="text/css">
   <![CDATA[
    .fil1 {fill:#FEFEFE}
    .fil0 {fill:#571845}
   ]]>
  </style>
 </defs>
 <g id="Layer_x0020_1">
  <metadata id="CorelCorpID_0Corel-Layer"/>
  <circle class="fil0" cx="425" cy="425" r="425"/>
  <g id="_347896224">
   <g>
    <g id="_178907720">
     <path class="fil1" d="M430 681c0,0 -1,0 -1,0 -68,0 -139,-8 -210,-23 -2,0 -4,-2 -5,-4 -1,-2 -1,-4 0,-6 38,-74 38,-159 0,-254 -1,-2 -1,-4 0,-6 2,-2 4,-3 6,-3l0 0c4,0 7,2 7,6 20,48 29,94 30,137 0,41 -9,81 -26,118 135,28 266,28 387,1 -17,-37 -26,-76 -26,-117 0,-43 10,-89 28,-136 2,-4 6,-6 9,-4 4,1 6,5 4,9 -36,93 -36,176 2,249 1,2 1,4 0,6 -1,2 -3,4 -5,4 -64,15 -131,23 -200,23z"/>
    </g>
    <g id="_178907552">
     <path class="fil1" d="M425 532c-75,0 -144,-18 -184,-47 -3,-2 -3,-7 -1,-10 2,-3 7,-4 10,-1 37,27 104,44 175,44 71,0 136,-16 174,-44 3,-2 8,-1 10,2 2,3 1,8 -2,10 -40,29 -108,46 -182,46z"/>
    </g>
    <g id="_178908152">
     <path class="fil1" d="M425 472c-57,0 -111,-10 -152,-29 -42,-19 -65,-45 -65,-74 0,-18 9,-36 28,-51 17,-14 41,-26 71,-35 3,-1 7,1 8,4 2,4 0,8 -4,9 -28,8 -51,20 -66,33 -15,12 -23,26 -23,40 0,23 20,45 57,62 39,17 91,27 146,27 55,0 107,-10 146,-27 37,-17 57,-39 57,-62 0,-14 -8,-28 -23,-40 -15,-13 -38,-25 -66,-33 -4,-1 -6,-5 -5,-9 2,-3 6,-5 9,-4 30,9 54,21 71,35 19,15 28,33 28,51 0,29 -23,55 -65,74 -41,19 -95,29 -152,29z"/>
    </g>
    <g id="_178907576">
     <path class="fil1" d="M384 404c-2,0 -3,0 -4,-1 -45,-32 -71,-70 -78,-111 -9,-55 21,-97 23,-99 2,-2 5,-3 8,-2 2,1 49,22 69,74 15,39 11,85 -12,135 -1,2 -2,4 -4,4 -1,0 -2,0 -2,0zm-51 -197c-7,12 -23,44 -17,83 6,35 27,68 65,96 18,-43 21,-82 8,-116 -14,-37 -44,-57 -56,-63z"/>
    </g>
    <g id="_178907408">
     <path class="fil1" d="M373 365c-2,0 -3,-1 -5,-2 -31,-30 -45,-63 -43,-98 0,-11 3,-24 8,-36 1,-2 2,-4 5,-4 2,-1 4,0 6,1 10,8 19,18 25,27 19,30 23,65 11,107 -1,2 -3,4 -5,4 -1,1 -1,1 -2,1zm-30 -121c-3,7 -4,15 -4,22 -2,28 8,54 31,78 7,-32 3,-60 -13,-83 -3,-6 -9,-12 -14,-17z"/>
    </g>
    <g id="_178907792">
     <path class="fil1" d="M466 404c0,0 -1,0 -2,0 -2,0 -3,-2 -4,-4 -23,-50 -27,-96 -12,-135 20,-52 67,-73 69,-74 3,-1 6,0 8,2 2,2 32,44 23,99 -7,41 -33,79 -78,111 -1,1 -2,1 -4,1zm51 -197c-12,6 -42,26 -56,64 -13,33 -10,72 8,115 38,-28 59,-61 65,-96 6,-39 -10,-71 -17,-83z"/>
    </g>
    <g id="_178907984">
     <path class="fil1" d="M477 365c-1,0 -1,0 -2,-1 -2,0 -4,-2 -5,-4 -12,-42 -8,-77 11,-107 6,-9 15,-19 25,-27 2,-1 4,-2 6,-1 3,0 4,2 5,4 5,12 8,25 8,36 2,35 -12,68 -43,98 -2,1 -3,2 -5,2zm30 -121c-5,5 -11,11 -14,17 -16,23 -20,51 -13,83 23,-24 33,-50 31,-78 0,-7 -1,-15 -4,-22z"/>
    </g>
    <g id="_178907936">
     <path class="fil1" d="M425 406c-14,0 -28,-1 -42,-2 0,0 0,0 0,0 -26,-2 -49,-5 -65,-11 -21,-6 -31,-14 -31,-24 0,-12 15,-21 45,-28 3,-1 7,2 8,6 1,3 -2,7 -5,8 -27,6 -33,13 -34,14 0,1 5,6 22,11 15,5 37,8 61,10 0,0 0,0 0,0 14,1 27,2 41,2 14,0 27,-1 41,-2 0,0 0,0 0,0 24,-2 46,-5 61,-10 17,-5 22,-10 22,-11 -1,-1 -7,-8 -34,-14 -3,-1 -6,-5 -5,-8 1,-4 5,-7 8,-6 30,7 45,16 45,28 0,10 -10,18 -31,24 -16,6 -39,9 -65,11 0,0 0,0 0,0 -14,1 -28,2 -42,2zm23 -59c0,0 0,0 0,0 -15,-1 -31,-1 -46,0 -4,0 -7,-3 -7,-7 0,-4 3,-7 6,-7 16,-1 32,-1 48,0 3,0 6,3 6,7 0,4 -3,7 -7,7z"/>
    </g>
    <g id="_178908128">
     <path class="fil1" d="M580 636c-3,0 -5,-2 -6,-5 -10,-28 -15,-61 -15,-96 0,-4 3,-7 7,-7 0,0 0,0 0,0 3,0 7,3 7,7 0,34 5,65 14,92 1,3 -1,7 -4,9 -1,0 -2,0 -3,0z"/>
    </g>
    <g>
     <g id="_178908296">
      <path class="fil1" d="M425 209c-4,0 -7,-3 -7,-7l0 -26c0,-4 3,-7 7,-7 4,0 7,3 7,7l0 26c0,4 -3,7 -7,7z"/>
     </g>
     <g id="_178908368">
      <path class="fil1" d="M438 196l-26 0c-4,0 -7,-3 -7,-7 0,-4 3,-7 7,-7l26 0c4,0 7,3 7,7 0,4 -3,7 -7,7z"/>
     </g>
    </g>
    <g>
     <g>
      <g id="_178908488">
       <path class="fil1" d="M601 286c-4,0 -7,-3 -7,-7l0 -26c0,-4 3,-7 7,-7 4,0 7,3 7,7l0 26c0,4 -3,7 -7,7z"/>
      </g>
      <g id="_178908560">
       <path class="fil1" d="M614 273l-26 0c-4,0 -7,-3 -7,-7 0,-4 3,-7 7,-7l26 0c4,0 7,3 7,7 0,4 -3,7 -7,7z"/>
      </g>
     </g>
     <g>
      <g id="_178908656">
       <path class="fil1" d="M249 286c-4,0 -7,-3 -7,-7l0 -26c0,-4 3,-7 7,-7 4,0 7,3 7,7l0 26c0,4 -3,7 -7,7z"/>
      </g>
      <g id="_178908728">
       <path class="fil1" d="M262 273l-26 0c-4,0 -7,-3 -7,-7 0,-4 3,-7 7,-7l26 0c4,0 7,3 7,7 0,4 -3,7 -7,7z"/>
      </g>
     </g>
    </g>
    <g>
     <g id="_178908248">
      <path class="fil1" d="M425 634c-2,0 -4,-1 -5,-2l-27 -28c-3,-2 -3,-7 0,-10l27 -27c1,-1 3,-2 5,-2 2,0 4,1 5,2l27 27c2,2 2,3 2,5 0,2 0,4 -2,5l-27 28c-1,1 -3,2 -5,2zm-17 -35l17 18 17 -18 -17 -17 -17 17z"/>
     </g>
     <g id="_178908896">
      <path class="fil1" d="M425 579c-4,0 -7,-3 -7,-7l0 -25c0,-4 3,-7 7,-7 4,0 7,3 7,7l0 25c0,4 -3,7 -7,7z"/>
     </g>
     <g id="_178908968">
      <path class="fil1" d="M478 606l-26 0c-4,0 -7,-3 -7,-7 0,-4 3,-7 7,-7l26 0c3,0 7,3 7,7 0,4 -4,7 -7,7z"/>
     </g>
     <g id="_178909040">
      <path class="fil1" d="M425 659c-4,0 -7,-3 -7,-7l0 -25c0,-4 3,-7 7,-7 4,0 7,3 7,7l0 25c0,4 -3,7 -7,7z"/>
     </g>
     <g id="_178909112">
      <path class="fil1" d="M398 606l-26 0c-3,0 -7,-3 -7,-7 0,-4 4,-7 7,-7l26 0c4,0 7,3 7,7 0,4 -3,7 -7,7z"/>
     </g>
    </g>
   </g>
  </g>
 </g>
</svg>
