<?xml version="1.0" encoding="UTF-8"?>
<!DOCTYPE svg PUBLIC "-//W3C//DTD SVG 1.1//EN" "http://www.w3.org/Graphics/SVG/1.1/DTD/svg11.dtd">
<!-- Creator: CorelDRAW -->
<svg xmlns="http://www.w3.org/2000/svg" xml:space="preserve" width="50px" height="50px" version="1.1" style="shape-rendering:geometricPrecision; text-rendering:geometricPrecision; image-rendering:optimizeQuality; fill-rule:evenodd; clip-rule:evenodd"
viewBox="0 0 29986 29986"
 xmlns:xlink="http://www.w3.org/1999/xlink">
 <defs>
  <style type="text/css">
   <![CDATA[
    .fil0 {fill:#3A5A99}
    .fil1 {fill:white}
   ]]>
  </style>
 </defs>
 <g id="Layer_x0020_1">
  <metadata id="CorelCorpID_0Corel-Layer"/>
  <circle class="fil0" cx="14993" cy="14993" r="14993"/>
  <path class="fil1" d="M15107 12834c-61,0 -123,-31 -169,-77 -77,-93 -77,-247 15,-324 15,-16 2111,-1895 2512,-2913 46,-124 185,-170 309,-124 123,47 169,185 123,309 -447,1110 -2558,3021 -2635,3082 -47,16 -93,47 -155,47z"/>
  <path class="fil1" d="M14995 12818c-61,0 -123,-15 -154,-61l-31 -31c-678,-617 -2219,-2142 -2589,-3037 -46,-123 16,-246 124,-308 123,-46 246,15 308,123 339,849 1941,2389 2466,2867 31,16 31,31 46,46 93,93 93,232 0,324 -46,46 -108,77 -170,77z"/>
  <path class="fil1" d="M17789 9859c-93,0 -170,-31 -231,-62 -386,-231 -263,-894 46,-1388 355,-617 848,-925 1188,-725 77,47 169,124 215,309 78,277 -15,678 -262,1095 -216,401 -540,694 -817,771 -31,0 -93,0 -139,0z"/>
  <path class="fil1" d="M12329 9859c-308,0 -678,-293 -972,-787 0,0 0,0 0,0 -354,-632 -354,-1203 -30,-1388 339,-200 832,108 1187,725 232,386 324,802 247,1080 -46,185 -154,262 -216,308 -62,47 -139,62 -216,62z"/>
  <path class="fil1" d="M22306 9775c275,499 797,825 1384,853 340,-760 426,-1233 299,-1417 -92,-123 -370,-77 -555,-31 -394,211 -762,410 -1128,595z"/>
  <path class="fil1" d="M23485 11059c-678,-88 -1259,-484 -1585,-1075 -267,139 -525,273 -775,403 420,744 1120,1274 1933,1468 164,-288 306,-553 427,-796z"/>
  <path class="fil1" d="M22814 12275c-889,-253 -1642,-849 -2099,-1672 -257,137 -504,269 -741,399 515,944 1361,1660 2375,2026 169,-264 323,-515 465,-753z"/>
  <path class="fil1" d="M22097 13420c-1079,-409 -1981,-1187 -2527,-2194 -265,150 -516,296 -751,440 616,1132 1598,2012 2781,2498 176,-258 341,-506 497,-744z"/>
  <path class="fil1" d="M21342 14537c-1241,-532 -2266,-1453 -2914,-2625 -260,170 -498,337 -715,506 719,1248 1812,2252 3110,2852 181,-252 354,-496 519,-733z"/>
  <path class="fil1" d="M20555 15640c-1333,-637 -2449,-1668 -3197,-2928 -236,209 -440,422 -611,644 717,1132 1691,2070 2832,2736 338,-112 651,-246 938,-401 1,0 1,-1 2,-2 12,-16 24,-32 36,-49z"/>
  <path class="fil1" d="M18959 16267c-987,-650 -1832,-1497 -2496,-2485 -42,75 -81,152 -116,230 93,318 117,701 71,1150 394,456 837,898 1330,1304 430,-43 834,-109 1211,-199z"/>
  <path class="fil1" d="M17101 16512c-275,-243 -534,-496 -775,-758 -48,235 -110,483 -188,746 0,6 0,12 -1,17 333,10 655,8 964,-5z"/>
  <path class="fil1" d="M16509 16985c-158,0 -316,0 -473,-5l-50 868 79 102c300,-344 630,-681 950,-974 -166,6 -335,9 -506,9z"/>
  <path class="fil1" d="M17779 16924c-443,352 -978,868 -1432,1389l576 742c802,-900 2031,-1923 3028,-2610 -95,35 -190,69 -288,100 -36,24 -77,37 -122,38 -535,163 -1123,277 -1762,341z"/>
  <path class="fil1" d="M20815 16422c-1044,625 -2649,1915 -3604,3003l554 713c991,-1191 2752,-2613 4080,-3277 4,-2 9,-4 13,-6 7,-9 13,-17 18,-25 -92,-61 -339,-154 -509,-200 -180,-58 -381,-121 -552,-208z"/>
  <path class="fil1" d="M21594 17522c-1227,714 -2724,1968 -3539,2989l459 592c31,40 61,78 90,115 761,-1047 2198,-2212 3297,-2864 2,-4 4,-8 6,-12 46,-77 123,-124 216,-124 139,16 231,16 278,0 -104,-163 -451,-455 -807,-696z"/>
  <path class="fil1" d="M22053 18787c-1093,668 -2481,1825 -3146,2781 365,379 501,352 501,352 62,-31 139,-339 124,-632 0,-93 46,-170 123,-216 77,-46 170,-46 247,15 787,555 972,447 972,447 46,-30 46,-231 0,-401 -31,-77 0,-169 61,-231 62,-62 155,-77 232,-62 925,278 1064,108 1064,108 77,-123 -185,-617 -509,-1002 -62,-77 -77,-185 -31,-262 46,-77 139,-124 247,-108 262,46 355,0 370,-16 64,-90 -53,-437 -255,-773z"/>
  <path class="fil1" d="M15013 20316c148,0 321,-142 382,-447l-764 0c61,305 233,447 382,447z"/>
  <polygon class="fil1" points="14592,19406 15434,19406 15470,18820 14555,18820 "/>
  <path class="fil1" d="M14527 18357l972 0 24 -398c-6,-35 -4,-71 7,-104l5 -84 -1044 0 36 586z"/>
  <path class="fil1" d="M14462 17308l1102 0 34 -550c-1,-12 0,-23 1,-36l-1174 0c1,5 2,10 2,16l35 570z"/>
  <path class="fil1" d="M14285 16260l1458 0c62,-218 111,-418 148,-602l-1752 0c37,184 85,384 146,602z"/>
  <path class="fil1" d="M14065 15196l1889 0c4,-22 10,-44 20,-64 20,-198 24,-371 17,-523l-1950 0c-9,168 -2,362 24,587z"/>
  <path class="fil1" d="M14113 14147l1787 0c-30,-44 -44,-98 -40,-154 -24,-52 -50,-99 -76,-139 -170,-278 -416,-324 -416,-324 -11,-2 -22,-4 -32,-7 -103,15 -211,22 -323,22 -108,0 -212,-7 -312,-20 -9,2 -18,4 -28,5 -30,0 -262,46 -431,324 -49,78 -94,174 -129,293z"/>
  <path class="fil1" d="M14701 13072c94,16 198,26 312,26 540,0 863,-216 863,-339 0,-93 -308,-324 -863,-324 -571,0 -864,231 -864,324 0,94 192,244 525,308 9,1 18,3 27,5z"/>
  <path class="fil1" d="M13977 16985l-491 0c-173,0 -343,-3 -510,-10 319,291 650,628 955,978l98 -126 -15 -250c-3,-12 -4,-25 -4,-37 0,-4 0,-7 1,-11l-34 -544z"/>
  <path class="fil1" d="M12875 16519c324,16 660,19 1009,11 -84,-280 -150,-545 -200,-794 -250,270 -521,530 -809,783z"/>
  <path class="fil1" d="M12237 16472c505,-413 970,-864 1359,-1328 -24,-266 -24,-509 1,-729 -2,-12 -3,-25 -3,-37 0,-33 7,-64 21,-93 13,-78 29,-152 48,-224 -34,-77 -71,-152 -111,-226 -641,968 -1479,1806 -2458,2450 358,83 739,145 1143,187z"/>
  <path class="fil1" d="M10459 16109c1150,-677 2109,-1610 2812,-2710 -174,-231 -382,-453 -625,-672 -736,1254 -1848,2279 -3176,2914 22,29 39,54 54,74 287,153 599,284 935,394z"/>
  <path class="fil1" d="M9191 15252c1305,-611 2395,-1596 3100,-2823 -211,-166 -443,-332 -696,-500 -650,1163 -1663,2077 -2901,2614 158,228 323,465 497,709z"/>
  <path class="fil1" d="M8427 14153c1179,-493 2160,-1352 2779,-2474 -233,-145 -480,-292 -743,-442 -557,1004 -1447,1789 -2521,2187 151,232 313,475 485,729z"/>
  <path class="fil1" d="M7684 13023c1020,-351 1872,-1077 2379,-2012 -244,-136 -499,-276 -766,-419 -431,805 -1189,1415 -2077,1676 141,237 295,488 464,755z"/>
  <path class="fil1" d="M6974 11846c820,-203 1513,-738 1913,-1473 -246,-131 -501,-265 -765,-404 -314,595 -900,996 -1571,1088 119,239 260,502 423,789z"/>
  <path class="fil1" d="M6339 10613c586,-30 1106,-356 1381,-854 -366,-187 -734,-397 -1128,-594 -185,-46 -478,-93 -556,31 -119,172 -50,627 303,1417z"/>
  <path class="fil1" d="M12199 16922c-812,-82 -1539,-245 -2176,-485 992,688 2226,1719 3050,2625l572 -739c-456,-535 -986,-1046 -1446,-1401z"/>
  <path class="fil1" d="M12789 19429c-961,-1090 -2578,-2377 -3606,-2997 -166,81 -361,142 -540,198 -154,46 -416,123 -509,200 5,8 12,17 20,27 4,1 7,3 11,4 1178,582 3013,1972 4073,3280l551 -712z"/>
  <path class="fil1" d="M11946 20518c-868,-1097 -2389,-2320 -3533,-2994 -355,241 -700,532 -803,694 61,0 138,16 277,0 93,0 170,31 216,124 7,12 13,24 18,36 1109,659 2526,1813 3264,2861 31,-38 63,-78 96,-121l465 -600z"/>
  <path class="fil1" d="M11079 21590c-650,-956 -2038,-2115 -3133,-2785 -195,327 -307,654 -244,755 16,16 108,62 370,16 93,-16 201,31 247,108 46,92 46,185 -31,262 -339,385 -586,894 -509,1002 0,0 139,170 1064,-108 78,-30 170,0 232,62 61,62 77,154 61,232 -46,169 -46,385 -15,416 0,0 201,92 956,-447 77,-47 170,-62 247,-16 77,47 123,124 123,216 -15,309 47,617 124,633 0,0 136,36 508,-346z"/>
 </g>
</svg>
