<?xml version="1.0" encoding="UTF-8"?>
<!DOCTYPE svg PUBLIC "-//W3C//DTD SVG 1.1//EN" "http://www.w3.org/Graphics/SVG/1.1/DTD/svg11.dtd">
<!-- Creator: CorelDRAW -->
<svg xmlns="http://www.w3.org/2000/svg" xml:space="preserve" width="50px" height="50px" version="1.1" style="shape-rendering:geometricPrecision; text-rendering:geometricPrecision; image-rendering:optimizeQuality; fill-rule:evenodd; clip-rule:evenodd"
viewBox="0 0 11111 11111"
 xmlns:xlink="http://www.w3.org/1999/xlink">
 <defs>
  <style type="text/css">
   <![CDATA[
    .fil0 {fill:#F44C71}
    .fil1 {fill:white}
   ]]>
  </style>
 </defs>
 <g id="Layer_x0020_1">
  <metadata id="CorelCorpID_0Corel-Layer"/>
  <circle class="fil0" cx="5556" cy="5556" r="5556"/>
  <path class="fil1" d="M6437 7250c-15,-69 -48,-85 -96,-108 -55,-26 -130,-61 -178,-154 -45,-86 -56,-206 -35,-378 26,-211 93,-378 185,-609 238,-599 391,-863 977,-1181 306,-166 603,-268 797,-273l72 -1c4,-281 156,-505 241,-609 -153,-344 -340,-358 -359,-359 -43,6 -79,-13 -105,-47 -93,-123 -162,-184 -207,-184 -22,0 -64,14 -139,82 -39,34 -79,62 -123,84 1,66 20,170 133,218 121,53 80,232 -48,232 -16,0 -32,-3 -48,-10 -188,-81 -258,-240 -274,-377 -74,4 -140,-4 -222,-23 -812,-183 -1859,-84 -2619,188 -637,228 -1533,155 -1688,867 -10,45 -16,89 -18,131 -9,200 38,348 101,543 41,124 82,253 106,397 84,519 122,1281 134,1571l772 0c-10,-80 -41,-107 -125,-181 -36,-33 -82,-73 -135,-127 -19,-19 -32,-44 -35,-71l-49 -413c-6,-44 14,-88 51,-114 243,-166 589,-501 690,-600 17,-141 38,-437 -26,-599 -25,-62 6,-132 68,-157 62,-24 132,6 157,69 77,197 64,483 48,645 347,49 757,10 1038,-42 2,-103 29,-255 140,-406 40,-54 115,-65 169,-26 54,40 65,116 25,169 -112,152 -84,209 -86,363l67 1490 644 0zm-4313 -1243c-67,0 -121,-54 -121,-121l0 -933c0,-188 153,-340 340,-340l111 0c118,-709 750,-847 1318,-964 193,-40 374,-77 536,-135 802,-287 1897,-390 2753,-196 138,31 261,26 368,-70 111,-99 203,-143 300,-143 148,0 264,109 366,236 115,19 358,109 534,516 124,35 378,129 456,344 9,24 61,180 -29,330 -73,122 -213,197 -415,223 -171,25 -369,30 -548,35 -337,8 -1084,415 -1249,679 -12,20 -24,40 -36,60 73,356 178,747 255,1017 76,269 168,302 265,337 136,48 251,112 277,368l1241 0c66,0 120,54 120,121l0 514c0,67 -54,121 -120,121l-6581 0c-66,0 -120,-54 -120,-121l0 -514c0,-67 54,-121 120,-121l517 0c-12,-293 -50,-1039 -131,-1533 -49,-303 -193,-547 -210,-863l-98 0c-54,0 -98,44 -98,99l0 933c0,67 -54,121 -121,121zm262 1485l0 273 6339 0 0 -273 -6339 0zm3165 -242l-60 -1347c-170,30 -482,70 -772,63 -76,145 -221,591 -229,716 -3,60 -9,89 -13,137 63,46 153,92 206,119 156,81 214,133 229,312l639 0zm-1089 -1302c-40,-5 -78,-10 -116,-16 -111,109 -405,391 -646,569l36 300c36,34 67,62 95,87 124,109 189,176 207,362l632 0c-6,-56 -11,-52 -98,-97 -90,-47 -262,-132 -310,-217 -46,-79 -18,-176 -13,-269 7,-106 109,-478 213,-719zm2173 -85c-36,78 -72,164 -106,249 -87,219 -140,350 -161,527 -19,155 -2,216 9,238 37,71 261,53 304,373l682 0c-14,-102 -33,-111 -117,-141 -121,-44 -305,-110 -416,-498 -57,-203 -131,-474 -195,-748zm1766 -1327c81,-5 139,-12 207,-21 125,-16 208,-53 241,-108 33,-56 10,-121 9,-124 -33,-92 -173,-157 -275,-188 -63,79 -174,244 -182,441zm-408 -519c-31,0 -64,-13 -93,-21 -65,-17 -103,-83 -86,-148 17,-64 84,-102 148,-85l62 16c64,18 102,84 85,148 -14,54 -63,90 -116,90z"/>
 </g>
</svg>
