<?xml version="1.0" encoding="UTF-8"?>
<!DOCTYPE svg PUBLIC "-//W3C//DTD SVG 1.1//EN" "http://www.w3.org/Graphics/SVG/1.1/DTD/svg11.dtd">
<!-- Creator: CorelDRAW -->
<svg xmlns="http://www.w3.org/2000/svg" xml:space="preserve" width="50px" height="50px" version="1.1" style="shape-rendering:geometricPrecision; text-rendering:geometricPrecision; image-rendering:optimizeQuality; fill-rule:evenodd; clip-rule:evenodd"
viewBox="0 0 850 850"
 xmlns:xlink="http://www.w3.org/1999/xlink">
 <defs>
  <style type="text/css">
   <![CDATA[
    .fil1 {fill:#FEFEFE}
    .fil0 {fill:#FF4800}
   ]]>
  </style>
 </defs>
 <g id="Layer_x0020_1">
  <metadata id="CorelCorpID_0Corel-Layer"/>
  <circle class="fil0" cx="425" cy="425" r="425"/>
  <g id="_348185360">
   <g>
    <g>
     <g id="_348184760">
      <path class="fil1" d="M273 651c-3,0 -6,-2 -6,-6l-7 -56c-1,-1 0,-3 0,-4l6 -10c0,0 0,-1 0,-1 12,-17 10,-56 8,-72 -26,-38 -10,-87 -9,-89 0,0 0,0 0,0 7,-19 19,-33 36,-40 30,-13 66,-1 80,5 1,1 2,1 2,1 1,0 1,1 1,1 0,0 1,0 1,0 5,0 11,0 17,0 46,1 140,3 143,-39 3,-25 39,-32 40,-33 4,0 8,2 8,6 1,4 -1,7 -5,8l0 0c0,0 -27,6 -29,21 -5,55 -104,52 -157,51 -7,0 -12,0 -17,0 -3,0 -5,-1 -8,-2 0,0 -1,-1 -1,-1 -10,-4 -44,-16 -70,-5 -13,6 -22,16 -28,31 0,3 -15,47 8,79 1,1 1,2 2,3 0,2 8,57 -10,83l-4 8 6 54c1,3 -2,7 -6,7 0,0 0,0 -1,0z"/>
     </g>
     <g id="_348184832">
      <path class="fil1" d="M273 651l-28 0c-3,0 -6,-2 -7,-6l-7 -72c0,-2 0,-3 1,-4 0,-1 10,-18 20,-35 6,-10 10,-18 14,-24 2,-4 3,-6 5,-8 2,-3 4,-8 10,-6 3,1 5,5 4,9 0,1 -1,2 -2,3 -3,5 -24,42 -38,66l6 63 22 0c4,0 7,4 7,7 0,4 -3,7 -7,7zm3 -142c1,1 2,1 3,1 -1,0 -2,0 -3,-1z"/>
     </g>
     <g id="_348184784">
      <path class="fil1" d="M513 652c0,0 0,0 0,0l-33 0c-4,0 -7,-4 -7,-7l0 -90c0,-9 -3,-19 -6,-22 0,0 -1,0 -2,1 -9,3 -27,8 -48,9 -24,0 -44,-6 -62,-18 -6,6 -16,14 -26,15l-25 56 12 47c0,2 0,4 -2,6 -1,1 -3,2 -5,2l-36 0c-3,0 -7,-3 -7,-7 0,-3 4,-7 7,-7l27 0 -10 -40c0,-2 0,-3 0,-5l28 -62c1,-3 4,-4 7,-4 6,1 19,-8 25,-15 2,-2 6,-3 9,0 37,29 87,15 101,9 6,-2 11,-1 15,2 11,8 12,29 12,33l0 83 19 0 0 -47c-8,-26 13,-83 16,-89 0,-1 1,-2 2,-3l21 -18c1,-2 3,-5 5,-9 28,-49 34,-58 38,-60 14,-9 29,-4 43,13 8,10 20,9 27,3 9,-6 13,-20 3,-34l-56 -79c-1,-1 -2,-3 -2,-5 2,-27 -21,-66 -34,-87 -6,53 23,87 23,88 2,3 2,7 -1,9 -3,3 -7,3 -10,0 -1,-2 -39,-48 -22,-117 0,-3 2,-5 5,-5 3,-1 6,0 7,3 2,2 47,64 47,108l54 77c15,21 9,43 -5,53 -13,10 -33,11 -47,-6 -13,-16 -21,-11 -24,-10 -5,6 -26,42 -34,56 -2,4 -5,8 -6,10 0,0 0,1 -1,1l-21 18c-6,18 -21,63 -15,80 1,1 1,1 1,2l0 55c0,2 -1,4 -2,5 -2,2 -3,2 -5,2z"/>
     </g>
     <g id="_348184640">
      <path class="fil1" d="M545 652l-32 0c-4,0 -7,-3 -7,-7 0,-4 3,-7 7,-7l25 0 0 -108c0,-2 0,-3 1,-4 8,-12 5,-33 4,-40 0,-3 2,-7 6,-8 4,0 8,2 8,6 2,12 4,33 -5,48l0 113c0,4 -3,7 -7,7z"/>
     </g>
     <g id="_348185096">
      <path class="fil1" d="M614 425c-2,0 -3,0 -4,-1 -3,-3 -4,-7 -1,-10l39 -48c2,-3 7,-3 10,-1 3,3 3,7 1,10l-40 48c-1,1 -3,2 -5,2z"/>
     </g>
     <g id="_348184592">
      <path class="fil1" d="M187 544c-10,0 -14,-4 -16,-7 -4,-7 -2,-16 1,-20 3,-5 8,-5 13,-5 10,-1 22,-2 30,-25l22 -62c0,0 0,0 0,0 17,-43 46,-43 52,-43 4,1 7,4 6,8 0,4 -3,7 -7,6 -4,0 -24,0 -38,34l-22 62c-11,32 -32,33 -42,34 -1,0 -2,0 -3,0 0,1 0,3 1,4 0,0 2,1 4,0 0,0 0,0 1,0 23,-2 50,-13 55,-39 3,-15 9,-41 17,-59 1,-3 6,-5 9,-3 4,1 5,5 4,9 -7,16 -13,42 -16,55 -7,34 -40,49 -68,51 -1,0 -2,0 -3,0z"/>
     </g>
     <g id="_348184736">
      <path class="fil1" d="M619 368l-4 0c-4,0 -7,-3 -7,-7 0,-4 3,-7 7,-7l4 0c3,0 7,3 7,7 0,4 -4,7 -7,7z"/>
     </g>
    </g>
    <g id="_348185336">
     <path class="fil1" d="M468 533l0 0c-4,0 -7,-3 -7,-7l0 -46c0,-4 3,-7 7,-7l0 0c3,0 7,3 7,7l0 46c0,4 -4,7 -7,7z"/>
    </g>
    <g id="_348185504">
     <path class="fil1" d="M353 525c-2,0 -3,-1 -5,-2 -2,-3 -2,-8 0,-10l33 -33c3,-3 7,-3 10,0 3,3 3,7 0,10l-33 33c-1,1 -3,2 -5,2z"/>
    </g>
    <g id="_348185576">
     <path class="fil1" d="M592 425c-1,0 -1,0 -2,0l-24 -7c-4,-1 -6,-5 -5,-8 1,-4 5,-6 8,-5l25 6c3,1 5,5 4,9 0,3 -3,5 -6,5z"/>
    </g>
   </g>
  </g>
 </g>
</svg>
